<svg xmlns="http://www.w3.org/2000/svg" width="800" height="600" viewBox="0 0 800 600">
  <defs>
    <linearGradient id="panelGrad" x1="0%" y1="0%" x2="100%" y2="100%">
      <stop offset="0%" style="stop-color:#0a0a0a;stop-opacity:0.95" />
      <stop offset="50%" style="stop-color:#1a0a0a;stop-opacity:0.95" />
      <stop offset="100%" style="stop-color:#0a0a0a;stop-opacity:0.95" />
    </linearGradient>
    <filter id="glow">
      <feGaussianBlur stdDeviation="3" result="coloredBlur"/>
      <feMerge>
        <feMergeNode in="coloredBlur"/>
        <feMergeNode in="SourceGraphic"/>
      </feMerge>
    </filter>
  </defs>

  <rect width="800" height="600" fill="url(#panelGrad)" rx="10" ry="10"/>
  <rect x="5" y="5" width="790" height="590" fill="none" stroke="#ffd700" stroke-width="2" rx="8" ry="8" opacity="0.7"/>

  <!-- Header -->
  <text x="400" y="40" font-family="Arial, sans-serif" font-size="24" font-weight="bold"
        fill="#ffd700" text-anchor="middle" filter="url(#glow)">ULTRON INTERFACE</text>

  <!-- Status indicators -->
  <g opacity="0.8">
    <circle cx="50" cy="80" r="8" fill="#00ff00" filter="url(#glow)"/>
    <text x="70" y="85" font-family="Arial, sans-serif" font-size="14" fill="#00ff00">ONLINE</text>

    <circle cx="50" cy="110" r="8" fill="#ffd700" filter="url(#glow)"/>
    <text x="70" y="115" font-family="Arial, sans-serif" font-size="14" fill="#ffd700">ACTIVE</text>

    <circle cx="50" cy="140" r="8" fill="#ff0000" filter="url(#glow)"/>
    <text x="70" y="145" font-family="Arial, sans-serif" font-size="14" fill="#ff0000">THREAT DETECTED</text>
  </g>

  <!-- Data streams -->
  <g opacity="0.6">
    <line x1="200" y1="200" x2="600" y2="200" stroke="#ffd700" stroke-width="1"/>
    <line x1="200" y1="230" x2="550" y2="230" stroke="#ff0000" stroke-width="1"/>
    <line x1="200" y1="260" x2="580" y2="260" stroke="#ffd700" stroke-width="1"/>
  </g>

  <!-- Progress bars -->
  <g>
    <rect x="200" y="320" width="200" height="10" fill="#333" rx="5"/>
    <rect x="200" y="320" width="150" height="10" fill="#ffd700" rx="5"/>
    <text x="200" y="310" font-family="Arial, sans-serif" font-size="12" fill="#ffd700">SYSTEM LOAD</text>

    <rect x="200" y="350" width="200" height="10" fill="#333" rx="5"/>
    <rect x="200" y="350" width="180" height="10" fill="#ff0000" rx="5"/>
    <text x="200" y="340" font-family="Arial, sans-serif" font-size="12" fill="#ff0000">THREAT LEVEL</text>
  </g>

  <!-- Corner circuits -->
  <g opacity="0.4">
    <circle cx="50" cy="550" r="3" fill="#ffd700"/>
    <circle cx="750" cy="550" r="3" fill="#ff0000"/>
    <line x1="50" y1="550" x2="100" y2="550" stroke="#ffd700" stroke-width="1"/>
    <line x1="700" y1="550" x2="750" y2="550" stroke="#ff0000" stroke-width="1"/>
  </g>
</svg>