<svg xmlns="http://www.w3.org/2000/svg" width="1920" height="1080" viewBox="0 0 1920 1080">
  <defs>
    <linearGradient id="bgGrad" x1="0%" y1="0%" x2="100%" y2="100%">
      <stop offset="0%" style="stop-color:#0a0a0a;stop-opacity:1" />
      <stop offset="50%" style="stop-color:#1a0a0a;stop-opacity:1" />
      <stop offset="100%" style="stop-color:#0a0a0a;stop-opacity:1" />
    </linearGradient>
    <filter id="glow">
      <feGaussianBlur stdDeviation="3" result="coloredBlur"/>
      <feMerge>
        <feMergeNode in="coloredBlur"/>
        <feMergeNode in="SourceGraphic"/>
      </feMerge>
    </filter>
    <pattern id="grid" width="50" height="50" patternUnits="userSpaceOnUse">
      <path d="M 50 0 L 0 0 0 50" fill="none" stroke="rgba(255,0,0,0.1)" stroke-width="0.5"/>
    </pattern>
    <pattern id="circuitLines" width="200" height="200" patternUnits="userSpaceOnUse">
      <!-- Horizontal lines -->
      <line x1="0" y1="50" x2="100" y2="50" stroke="#ff0000" stroke-width="2" opacity="0.3"/>
      <line x1="120" y1="50" x2="200" y2="50" stroke="#ff0000" stroke-width="2" opacity="0.3"/>
      <!-- Vertical lines -->
      <line x1="50" y1="0" x2="50" y2="80" stroke="#ff0000" stroke-width="2" opacity="0.3"/>
      <line x1="50" y1="100" x2="50" y2="200" stroke="#ff0000" stroke-width="2" opacity="0.3"/>
      <!-- Connection points -->
      <circle cx="50" cy="50" r="4" fill="#ff0000" opacity="0.6"/>
      <circle cx="100" cy="50" r="3" fill="#cc0000" opacity="0.5"/>
      <circle cx="150" cy="150" r="3" fill="#cc0000" opacity="0.5"/>
      <!-- Corner elements -->
      <path d="M 100 48 L 105 50 L 100 52" fill="none" stroke="#ff3333" stroke-width="1.5"/>
      <path d="M 48 100 L 50 105 L 52 100" fill="none" stroke="#ff3333" stroke-width="1.5"/>
    </pattern>
  </defs>
  
  <!-- Base gradient -->
  <rect width="1920" height="1080" fill="url(#bgGrad)"/>
  
  <!-- Grid overlay -->
  <rect width="1920" height="1080" fill="url(#grid)" opacity="0.4"/>
  
  <!-- Circuit pattern -->
  <rect width="1920" height="1080" fill="url(#circuitLines)" opacity="0.6"/>
  
  <!-- Glowing accent lines -->
  <g filter="url(#glow)">
    <line x1="0" y1="200" x2="600" y2="200" stroke="#ff0000" stroke-width="1" opacity="0.4"/>
    <line x1="1920" y1="400" x2="1200" y2="400" stroke="#ff0000" stroke-width="1" opacity="0.4"/>
    <line x1="0" y1="700" x2="800" y2="700" stroke="#cc0000" stroke-width="1" opacity="0.3"/>
    <line x1="1920" y1="900" x2="1000" y2="900" stroke="#cc0000" stroke-width="1" opacity="0.3"/>
  </g>
  
  <!-- Corner decorations -->
  <g opacity="0.5">
    <!-- Top left -->
    <path d="M 0 0 L 100 0 L 100 5 L 5 5 L 5 100 L 0 100 Z" fill="#ff0000" opacity="0.3"/>
    <circle cx="100" cy="100" r="3" fill="#ff0000" filter="url(#glow)"/>
    
    <!-- Top right -->
    <path d="M 1920 0 L 1820 0 L 1820 5 L 1915 5 L 1915 100 L 1920 100 Z" fill="#ff0000" opacity="0.3"/>
    <circle cx="1820" cy="100" r="3" fill="#ff0000" filter="url(#glow)"/>
    
    <!-- Bottom left -->
    <path d="M 0 1080 L 100 1080 L 100 1075 L 5 1075 L 5 980 L 0 980 Z" fill="#ff0000" opacity="0.3"/>
    <circle cx="100" cy="980" r="3" fill="#ff0000" filter="url(#glow)"/>
    
    <!-- Bottom right -->
    <path d="M 1920 1080 L 1820 1080 L 1820 1075 L 1915 1075 L 1915 980 L 1920 980 Z" fill="#ff0000" opacity="0.3"/>
    <circle cx="1820" cy="980" r="3" fill="#ff0000" filter="url(#glow)"/>
  </g>
  
  <!-- Animated scanlines (CSS animation needed) -->
  <g opacity="0.2">
    <rect width="1920" height="2" fill="#ff0000" y="0">
      <animate attributeName="y" from="-2" to="1082" dur="8s" repeatCount="indefinite"/>
    </rect>
  </g>
</svg>